<svg xmlns="http://www.w3.org/2000/svg" xmlns:xlink="http://www.w3.org/1999/xlink" viewBox="0 0 80.35 80.35"><defs><style>.cls-1{fill:none;}.cls-2{fill:#8e8d8d;}.cls-3{clip-path:url(#clip-path);}.cls-4{fill:#fff;}</style><clipPath id="clip-path"><rect class="cls-1" x="15.72" y="15.72" width="52.4" height="51.53"/></clipPath></defs><g id="Layer_2" data-name="Layer 2"><g id="Layer_1-2" data-name="Layer 1"><circle class="cls-2" cx="40.18" cy="40.18" r="40.18"/><g class="cls-3"><path class="cls-4" d="M43.18,40.66A12.39,12.39,0,0,0,47.74,39,10.2,10.2,0,0,0,41,35.51a12.7,12.7,0,0,1-5.71,1.39,11.91,11.91,0,0,1-5.71-1.39,10.31,10.31,0,0,0-9.23,10.15v6.08a.94.94,0,0,0,1,.93H39.14a10.37,10.37,0,0,1,0-1.24V45.25A4.77,4.77,0,0,1,43.18,40.66Z"/><path class="cls-4" d="M35.32,33.45a8.87,8.87,0,1,0-9-8.87A8.94,8.94,0,0,0,35.32,33.45Z"/><path class="cls-4" d="M62.31,44c-4.56-.72-7.08-2.73-8.28-4.12a1.37,1.37,0,0,0-2,0A13.56,13.56,0,0,1,43.76,44,1.35,1.35,0,0,0,42.6,45.3v6.18c0,6.86,7.44,11.7,9.8,13a1.3,1.3,0,0,0,1.37,0c2.3-1.34,9.79-6.18,9.79-13V45.3A1.48,1.48,0,0,0,62.31,44Zm-4,6.29L53,55.5a1.73,1.73,0,0,1-1.21.52,1.52,1.52,0,0,1-1.2-.52l-2.78-2.73a1.63,1.63,0,0,1,0-2.37,1.7,1.7,0,0,1,2.41,0L51.77,52l4.14-4.08a1.71,1.71,0,0,1,2.41,0A1.73,1.73,0,0,1,58.32,50.25Z"/></g></g></g></svg>