<svg xmlns="http://www.w3.org/2000/svg" viewBox="0 0 79.44 80.35"><defs><style>.cls-1{fill:#104c8b;}.cls-2{fill:#fff;fill-rule:evenodd;}</style></defs><g id="Layer_2" data-name="Layer 2"><g id="Layer_1-2" data-name="Layer 1"><ellipse class="cls-1" cx="39.72" cy="40.18" rx="39.72" ry="40.18"/><path class="cls-2" d="M62.4,27a3.54,3.54,0,0,0-3.53-3.56H22.2A3.54,3.54,0,0,0,18.67,27V54a3.55,3.55,0,0,0,3.53,3.57H58.87A3.55,3.55,0,0,0,62.4,54ZM23.64,54.9H57.43a2.46,2.46,0,0,0,0-4.92H23.64a2.46,2.46,0,0,0,0,4.92ZM49.53,36.61l-16,8.07V28.54Z"/></g></g></svg>