<?xml version="1.0" encoding="UTF-8"?><svg id="Layer_2" xmlns="http://www.w3.org/2000/svg" viewBox="0 0 102.88 102.88"><defs><style>.cls-1{fill:#fff;}.cls-2{fill:none;}</style></defs><g id="Layer_1-2"><g><path class="cls-1" d="M48.47,77.94h31.61v3.85c0,1.7,1.95,2.67,3.31,1.64l7.23-5.49h3.78c4.39,0,7.96-3.56,7.96-7.96V37.9c0-4.39-3.56-7.96-7.96-7.96H48.47c-4.39,0-7.96,3.56-7.96,7.96v32.09c0,4.39,3.56,7.96,7.96,7.96Z"/><path class="cls-1" d="M35.52,37.9c0-7.16,5.8-12.96,12.96-12.96h13.89v-.04c0-4.39-3.56-7.96-7.96-7.96H8.47c-4.39,0-7.96,3.56-7.96,7.96V56.98c0,4.39,3.56,7.96,7.96,7.96h3.78l7.23,5.49c1.36,1.03,3.31,.06,3.31-1.64v-3.85h12.73v-27.04Z"/></g><rect class="cls-2" width="102.88" height="102.88"/></g></svg>