<svg xmlns="http://www.w3.org/2000/svg" viewBox="0 0 79.44 80.35"><defs><style>.cls-1{fill:#9f2064;}.cls-2{fill:#fff;}</style></defs><g id="Layer_2" data-name="Layer 2"><g id="Layer_1-2" data-name="Layer 1"><ellipse class="cls-1" cx="39.72" cy="40.18" rx="39.72" ry="40.18"/><path class="cls-2" d="M52.62,61.23H27.94a4.83,4.83,0,0,1-4.83-4.81V23.67a4.83,4.83,0,0,1,4.83-4.8H52.6a4.83,4.83,0,0,1,4.83,4.8V56.42A4.7,4.7,0,0,1,56,59.82,4.75,4.75,0,0,1,52.62,61.23ZM27.94,22.8a.87.87,0,0,0-.88.87V56.42a.87.87,0,0,0,.88.88H52.62a.79.79,0,0,0,.61-.26.82.82,0,0,0,.25-.6V23.67a.87.87,0,0,0-.88-.87Z"/><path class="cls-2" d="M46.24,31.05H33.86a2,2,0,1,1,0-3.93H46.24a2,2,0,1,1,0,3.93Z"/><path class="cls-2" d="M46.24,38.36H33.86a2,2,0,1,1,0-3.93H46.24a2,2,0,1,1,0,3.93Z"/><path class="cls-2" d="M46.24,45.67H33.86a2,2,0,1,1,0-3.93H46.24a2,2,0,1,1,0,3.93Z"/><path class="cls-2" d="M46.24,53H33.86a2,2,0,1,1,0-3.93H46.24a2,2,0,1,1,0,3.93Z"/></g></g></svg>