<svg xmlns="http://www.w3.org/2000/svg" viewBox="0 0 80.35 80.35"><defs><style>.cls-1{fill:#010101;}.cls-2{fill:#fff;}</style></defs><g id="Layer_2" data-name="Layer 2"><g id="Layer_1-2" data-name="Layer 1"><circle class="cls-1" cx="40.18" cy="40.18" r="40.18"/><path class="cls-2" d="M23.76,45.08a22.74,22.74,0,0,1-1.5-4.44,28.87,28.87,0,0,1-.72-4.56,2,2,0,0,1-.06-.6v-.6l-.18.06a12.14,12.14,0,0,0-2.58.9,5.63,5.63,0,0,0-2.16,1.56,5.15,5.15,0,0,0-1.14,2.88,6.73,6.73,0,0,0,1.08,4.14,5.2,5.2,0,0,0,2.28,2.28,5.08,5.08,0,0,0,2.46.24,5.85,5.85,0,0,0,1.68-.36,6.63,6.63,0,0,1,1.44-.3,2.22,2.22,0,0,1-.3-.66A2.43,2.43,0,0,1,23.76,45.08Z"/><path class="cls-2" d="M44.34,20l-.06.06-.42.42a6.84,6.84,0,0,1-.66.66c-1.2,1.14-2.4,2.28-3.66,3.36a41.6,41.6,0,0,1-4.86,3.84c-1.26.84-2.4,1.44-4.68,2.7-1.62.84-2.64,1.44-4.14,2.1l-.54.24-2,.9V35.6a29.62,29.62,0,0,0,.72,4.62A21,21,0,0,0,25.74,45c.12.18.24.42.36.6a3.64,3.64,0,0,0,.42.6A31.82,31.82,0,0,0,31.08,46,57.45,57.45,0,0,1,37,45.62c4.32,0,11.82,2.16,14.1,2.52a57.15,57.15,0,0,0-1.92-15.9A50.6,50.6,0,0,0,44.34,20Z"/><path class="cls-2" d="M55.56,20.6a.9.9,0,1,0-.78,1.62,12.58,12.58,0,0,1,6.9,11.52,13,13,0,0,1-1.92,7,1,1,0,0,0,.3,1.26,1.13,1.13,0,0,0,.48.12,1,1,0,0,0,.78-.42,15,15,0,0,0,2.16-7.92A14.45,14.45,0,0,0,55.56,20.6Z"/><path class="cls-2" d="M53.88,24.8a.9.9,0,1,0-.78,1.62,8,8,0,0,1,4.38,7.32,8.56,8.56,0,0,1-1.62,5A.88.88,0,0,0,56,40a1,1,0,0,0,.54.18.86.86,0,0,0,.72-.36,10.22,10.22,0,0,0,2-6.12A9.56,9.56,0,0,0,53.88,24.8Z"/><path class="cls-2" d="M40.74,58c-.06-.18-.18-.42-.3-.78-.06-.18-.18-.42-.24-.66a7.33,7.33,0,0,1-.66-2.82,6.16,6.16,0,0,1,.36-1.62c.12-.42.18-.72.3-1a7,7,0,0,0,.42-1.5v-.66a5.1,5.1,0,0,0-.24-1.32,23.56,23.56,0,0,0-2.76-.18,57.45,57.45,0,0,0-5.94.36,31.82,31.82,0,0,1-4.56.24l.48.78c.06.12.3.66.66,1.44,1.32,2.94,4.14,9.3,4.86,10.32a4.43,4.43,0,0,0,2.1,1.8,3.23,3.23,0,0,0,1.32.24,4.46,4.46,0,0,0,1.68-.36,4,4,0,0,0,2.64-2.52,2.92,2.92,0,0,0,.06-.72A9.28,9.28,0,0,0,40.74,58Z"/><path class="cls-2" d="M46.92,18.2a.89.89,0,0,0-1.56.84,55.44,55.44,0,0,1,5.1,12.6,54.39,54.39,0,0,1,1.86,16.74,1,1,0,0,0,.84,1h.06a.87.87,0,0,0,.9-.84A57.75,57.75,0,0,0,52.2,31.28,54.79,54.79,0,0,0,46.92,18.2Z"/></g></g></svg>