<svg xmlns="http://www.w3.org/2000/svg" viewBox="0 0 80.35 80.35"><defs><style>.cls-1{fill:#57a88e;}.cls-2{fill:#fff;}</style></defs><g id="Layer_2" data-name="Layer 2"><g id="Layer_1-2" data-name="Layer 1"><circle class="cls-1" cx="40.18" cy="40.18" r="40.18"/><path class="cls-2" d="M40.75,43.16H36.86a1.07,1.07,0,0,0-1,1.06V47a1.07,1.07,0,0,0,1,1.06h3.89A1.07,1.07,0,0,0,41.81,47V44.22A1.1,1.1,0,0,0,40.75,43.16Z"/><path class="cls-2" d="M24.82,51.85a1.52,1.52,0,0,1-1.54-1.54V31.74H54.34v8.83a17.17,17.17,0,0,1,3.12.48V26.7A4.66,4.66,0,0,0,52.8,22H49.44v-2.5A1.34,1.34,0,0,0,48.1,18.2H44.69a1.34,1.34,0,0,0-1.35,1.34V22h-9V19.54A1.34,1.34,0,0,0,33,18.2H29.52a1.38,1.38,0,0,0-1.39,1.34V22H24.77a4.66,4.66,0,0,0-4.66,4.66V50.26a4.66,4.66,0,0,0,4.66,4.66H40.61a10,10,0,0,1,0-1.25,13.08,13.08,0,0,1,.14-1.87H24.82Z"/><path class="cls-2" d="M45.5,35.53a1.06,1.06,0,0,0-1,1v2.79a1.06,1.06,0,0,0,1,1.05h3.89a1.07,1.07,0,0,0,1.06-1.05V36.58a1.07,1.07,0,0,0-1.06-1Z"/><path class="cls-2" d="M40.75,35.53H36.86a1.06,1.06,0,0,0-1,1v2.79a1.06,1.06,0,0,0,1,1.05h3.89a1.07,1.07,0,0,0,1.06-1.05V36.58A1.1,1.1,0,0,0,40.75,35.53Z"/><path class="cls-2" d="M33.12,36.58a1.07,1.07,0,0,0-1.06-1H28.18a1.07,1.07,0,0,0-1.06,1v2.79a1.07,1.07,0,0,0,1.06,1.05h3.88a1.07,1.07,0,0,0,1.06-1.05Z"/><path class="cls-2" d="M32.11,43.16H28.22a1.07,1.07,0,0,0-1,1.06V47a1.07,1.07,0,0,0,1,1.06h3.89A1.07,1.07,0,0,0,33.17,47V44.22A1.1,1.1,0,0,0,32.11,43.16Z"/><path class="cls-2" d="M53.76,43.64A10.08,10.08,0,1,0,63.84,53.72,10.08,10.08,0,0,0,53.76,43.64Zm4.56,8.83-5,5a1.63,1.63,0,0,1-2.21,0L48.58,55a1.56,1.56,0,0,1,2.2-2.21l1.44,1.44,4-4a1.53,1.53,0,1,1,2.11,2.21Z"/></g></g></svg>