<?xml version="1.0" encoding="UTF-8"?><svg id="Layer_2" xmlns="http://www.w3.org/2000/svg" viewBox="0 0 86.61 86.61"><defs><style>.cls-1{fill:#fff;}.cls-2{fill:none;stroke:#fff;stroke-miterlimit:10;stroke-width:3px;}</style></defs><g id="Layer_1-2"><g><path class="cls-2" d="M23.86,77.69l-19.77,7.33c-1.53,.45-2.95-.97-2.51-2.51l7.39-19.71"/><polygon class="cls-1" points="3.81 76.58 10.05 82.81 2.89 85.31 1.36 83.78 3.81 76.58"/><path class="cls-1" d="M85.56,12.86L73.75,1.04c-1.39-1.39-3.64-1.39-5.03,0L7.53,62.23l16.85,16.85L85.56,17.89c1.39-1.39,1.39-3.64,0-5.03Zm-6.23,2.74L24.23,70.7c-.29,.29-.68,.44-1.06,.44s-.77-.15-1.06-.44c-.59-.59-.59-1.54,0-2.12L77.22,13.48c.59-.59,1.54-.59,2.12,0s.59,1.54,0,2.12Z"/></g></g></svg>