<svg xmlns="http://www.w3.org/2000/svg" viewBox="0 0 80.35 80.35"><defs><style>.cls-1{fill:#eecd4d;}.cls-2{fill:#fff;}</style></defs><g id="Layer_2" data-name="Layer 2"><g id="Layer_1-2" data-name="Layer 1"><circle class="cls-1" cx="40.18" cy="40.18" r="40.18"/><path class="cls-2" d="M41,17.47c-11.86,0-21.56,9.91-21.56,22s9.7,22,21.56,22,21.56-9.91,21.56-22S52.86,17.47,41,17.47Zm0,40.39a18.36,18.36,0,0,1,0-36.72,18.36,18.36,0,0,1,0,36.72ZM53.58,44a1.8,1.8,0,0,1-1.8,1.84H38.41A1.8,1.8,0,0,1,36.62,44V30.25a1.8,1.8,0,1,1,3.59,0V42.14H51.78A1.8,1.8,0,0,1,53.58,44Z"/></g></g></svg>