<svg xmlns="http://www.w3.org/2000/svg" viewBox="0 0 79.44 80.35"><defs><style>.cls-1{fill:#010101;}.cls-2{fill:#fff;}</style></defs><g id="Layer_2" data-name="Layer 2"><g id="Layer_1-2" data-name="Layer 1"><ellipse class="cls-1" cx="39.72" cy="40.18" rx="39.72" ry="40.18"/><path class="cls-2" d="M40.49,52.05a.85.85,0,0,1-.94.72H22.64a.85.85,0,0,1-.94-.72,5.86,5.86,0,0,1,1-3.2,7.09,7.09,0,0,1,1.11-1.31l.16-.15c1.21-1.09,1.51-3.79,1.51-5.41h0A3.51,3.51,0,0,1,26,40.07a4.34,4.34,0,0,1,.66-.78,5.69,5.69,0,0,1,2.51-1.37,7.09,7.09,0,0,1,3.74,0,5.84,5.84,0,0,1,2.52,1.36,4.56,4.56,0,0,1,.66.78,3.56,3.56,0,0,1,.6,1.93h0c0,1.62.3,4.32,1.5,5.41l.17.15a7.49,7.49,0,0,1,1.11,1.31A5.86,5.86,0,0,1,40.49,52.05Zm15.93-3.19a7.21,7.21,0,0,0-1.11-1.31l-.17-.16c-1.2-1.09-1.5-3.79-1.5-5.41h0a3.56,3.56,0,0,0-.6-1.93,5.07,5.07,0,0,0-.66-.78,5.9,5.9,0,0,0-2.52-1.36,7.09,7.09,0,0,0-3.74,0,5.72,5.72,0,0,0-2.52,1.37,3.64,3.64,0,0,0-.65.78A3.54,3.54,0,0,0,42.36,42a3.29,3.29,0,0,0,.17,1c.38,1.15.16,3-.84,3.71l-.35.26a.92.92,0,0,0-.15,1.23h0a7,7,0,0,1,1.17,3.83h0c0,.34.24.72.58.72H56.45a.86.86,0,0,0,.94-.72A5.88,5.88,0,0,0,56.42,48.86Zm-15.93-22H23.58c-1.55,0-2.82,1-2.82,2.15v2.08c0,1.19,1.27,2.15,2.82,2.15h1.23a17.24,17.24,0,0,1,9.43,2.8h0a1.14,1.14,0,0,0,.61.17.85.85,0,0,0,.23,0,.87.87,0,0,0,.65-.44h0a4.5,4.5,0,0,1,4-2.5h.73c1.55,0,2.81-1,2.81-2.15V29C43.3,27.84,42,26.88,40.49,26.88Zm15-2.88h-15A3.08,3.08,0,0,0,40,24c-1.22.18-.71,1.4.53,1.4h0c2.59,0,4.69,1.61,4.69,3.59v2.08h0a19.8,19.8,0,0,0-.2,3.16l.21,1.32a.82.82,0,0,0,.68.61,1.1,1.1,0,0,0,1-.25l2.31-2.26a9.09,9.09,0,0,1,6.34-2.58h0c1.55,0,2.82-1,2.82-2.16V26.16C58.33,25,57.06,24,55.51,24Z"/></g></g></svg>