<svg xmlns="http://www.w3.org/2000/svg" viewBox="0 0 79.44 80.35"><defs><style>.cls-1{fill:#010101;}.cls-2{fill:#fff;}</style></defs><g id="Layer_2" data-name="Layer 2"><g id="Layer_1-2" data-name="Layer 1"><ellipse class="cls-1" cx="39.72" cy="40.18" rx="39.72" ry="40.18"/><path class="cls-2" d="M62.78,53.64v4H49.73v-4a3.21,3.21,0,0,1,.05-.72c0-.11,0-.22.06-.27s0-.22,0-.33A6.59,6.59,0,0,1,53,48a4.92,4.92,0,0,1-1.52-3.57A4.84,4.84,0,0,1,56,39.56h.27a2.39,2.39,0,0,1,.6,0H57a1.81,1.81,0,0,1,.49.11h.1a5.21,5.21,0,0,1,1.15.5,4.89,4.89,0,0,1,2.39,4.18A5,5,0,0,1,59.63,48,6.57,6.57,0,0,1,62.78,53.64Zm-30.56-1c0-.11,0-.22,0-.33a6.54,6.54,0,0,0-3.1-4.34,4.94,4.94,0,0,0,1.52-3.58,4.85,4.85,0,0,0-4.51-4.84H25.8a2,2,0,0,0-.59.06H25a1.5,1.5,0,0,0-.49.11h-.11a5.09,5.09,0,0,0-1.14.49,4.9,4.9,0,0,0-2.39,4.18,5,5,0,0,0,1.52,3.58,6.58,6.58,0,0,0-3.26,5.72v4h13v-4a3.21,3.21,0,0,0,0-.72C32.27,52.76,32.27,52.7,32.22,52.59Zm4.73-29a2.8,2.8,0,0,0,.33.44l.11.11a1.64,1.64,0,0,0,.43.44,6.58,6.58,0,0,0-3.26,5.72v4h13v-4a6.58,6.58,0,0,0-2.77-5.39l-.49-.33.43-.44.11-.11c.11-.16.22-.27.33-.44V23.5a8.87,8.87,0,0,0,.54-1.21A4.75,4.75,0,0,0,45.92,21a4.79,4.79,0,1,0-9.57,0,3.81,3.81,0,0,0,.6,2.53ZM26.18,37.85A15.11,15.11,0,0,1,34,26.19a8.86,8.86,0,0,1,1.52-2,4.52,4.52,0,0,1-.6-1.48A18,18,0,0,0,23.41,38.29a6,6,0,0,1,2.39-.49A.88.88,0,0,0,26.18,37.85Zm7.73,15c0,.28.05.55.05.83v2.25a17.52,17.52,0,0,0,14.14,0V53.64a4.63,4.63,0,0,1,0-.83,14.84,14.84,0,0,1-14.24,0Zm22-15h.38a5.69,5.69,0,0,1,2.4.5A17.88,17.88,0,0,0,47.17,22.78a8.39,8.39,0,0,1-.59,1.49,7.74,7.74,0,0,1,1.52,2A15,15,0,0,1,55.87,37.85Z"/></g></g></svg>