<svg xmlns="http://www.w3.org/2000/svg" viewBox="0 0 80.35 80.35"><defs><style>.cls-1{fill:#cd2032;}.cls-2{fill:#fff;}</style></defs><g id="Layer_2" data-name="Layer 2"><g id="Layer_1-2" data-name="Layer 1"><circle class="cls-1" cx="40.18" cy="40.18" r="40.18"/><path class="cls-2" d="M22.92,40.75a5.81,5.81,0,0,1,7-5.7,5.69,5.69,0,0,1,3,1.59A5.76,5.76,0,0,1,34.1,43a5.8,5.8,0,0,1-9.47,1.89A5.82,5.82,0,0,1,22.92,40.75ZM36.41,54.53a7.93,7.93,0,0,0-15.62,2v2.27a1.13,1.13,0,0,0,1.13,1.13H35.55a1.13,1.13,0,0,0,1.13-1.13V57.73l7.68-9.17h-3Zm27.52-7.11a1.16,1.16,0,0,1-.33.81,1.14,1.14,0,0,1-.8.33H44.36l8-9.49a1.14,1.14,0,0,0-1.73-1.46l-9.17,11H35.14a10.73,10.73,0,0,0-1.8-1.18,8.08,8.08,0,0,0-4.61-14.72,7.87,7.87,0,0,0-3.4.78V23.58H24.19a1.13,1.13,0,0,1-1.13-1.13,1.16,1.16,0,0,1,.33-.81,1.14,1.14,0,0,1,.8-.33H62.8a1.14,1.14,0,0,1,.8.33,1.16,1.16,0,0,1,.33.81,1.13,1.13,0,0,1-1.13,1.13H61.66V46.29H62.8a1.13,1.13,0,0,1,1.13,1.13ZM54.85,33.8a1.14,1.14,0,0,0-1.14-1.14H35.55a1.14,1.14,0,0,0,0,2.28H53.71a1.14,1.14,0,0,0,1.14-1.14Zm0-4.54a1.14,1.14,0,0,0-1.14-1.14H40.09a1.13,1.13,0,0,0-.8,1.94,1.14,1.14,0,0,0,.8.33H53.71a1.18,1.18,0,0,0,.81-.33A1.14,1.14,0,0,0,54.85,29.26Z"/></g></g></svg>